# xmcd CD database file
#
# Track frame offsets:
#	150
#	11755
#	30984
#	45101
#	66512
#	80725
#	100604
#	115983
#	126821
#	147427
#	156186
#	170494
#	178650
#	192519
#	205106
#	218869
#	225581
#	246855
#	253898
#
# Disc length: 3506 seconds
#
# Revision: 2
# Processed by: cddbd v1.5PL3 Copyright (c) Steve Scherf et al.
# Submitted via: CDex 1.51
#
DISCID=0c0db013
DTITLE=Bangkok Blue - Siamese Twins
DYEAR=1995
DGENRE=New Age
TTITLE0=I Am Siam [Song for Ming]
TTITLE1=The Journey
TTITLE2=Cambodia Rebirth
TTITLE3=rio-bkk
TTITLE4=Un Named
TTITLE5=Khon Jeen-Khon Thai (Chinese People-Thai
TTITLE6=Asia Holiday
TTITLE7=Yunan China
TTITLE8=Monsoona Montoona
TTITLE9=Chaing Mai
TTITLE10=Triangle Mode
TTITLE11=Ton Bai's Temple
TTITLE12=Siamese Twins Theme
TTITLE13=River Mekong
TTITLE14=Trippin' While Skippin'
TTITLE15=Twins Theme Reprise
TTITLE16=Adele
TTITLE17=Thinkin' 'Bout Home
TTITLE18=Lonely
EXTD=YEAR: 1995
EXTT0=
EXTT1=
EXTT2=
EXTT3=
EXTT4=
EXTT5=
EXTT6=
EXTT7=
EXTT8=
EXTT9=
EXTT10=
EXTT11=
EXTT12=
EXTT13=
EXTT14=
EXTT15=
EXTT16=
EXTT17=
EXTT18=
PLAYORDER=
